<svg width="74" height="16" viewBox="0 0 74 16" fill="none" xmlns="http://www.w3.org/2000/svg">
<path d="M72 5.34375C71.6875 5.34375 71.4167 5.4375 71.1875 5.625C70.9792 5.79167 70.8229 6.01042 70.7188 6.28125C70.6354 6.53125 70.6354 6.77083 70.7188 7L68.3438 9.375C68.1146 9.3125 67.8854 9.3125 67.6562 9.375L65.9688 7.6875C66.0312 7.4375 66.0208 7.1875 65.9375 6.9375C65.8542 6.66667 65.6979 6.44792 65.4688 6.28125C65.2604 6.09375 64.9896 6 64.6562 6C64.3438 6 64.0729 6.09375 63.8438 6.28125C63.6354 6.44792 63.4896 6.66667 63.4062 6.9375C63.3229 7.1875 63.3125 7.4375 63.375 7.6875L60.3438 10.7188C60.0938 10.6354 59.8438 10.6458 59.5938 10.75C59.3438 10.8333 59.125 10.9896 58.9375 11.2188C58.75 11.4271 58.6562 11.6875 58.6562 12C58.6562 12.375 58.7812 12.6979 59.0312 12.9688C59.3021 13.2188 59.625 13.3438 60 13.3438C60.3125 13.3438 60.5729 13.25 60.7812 13.0625C61.0104 12.875 61.1667 12.6562 61.25 12.4062C61.3542 12.1562 61.3646 11.9062 61.2812 11.6562L64.3125 8.625C64.5417 8.6875 64.7708 8.6875 65 8.625L66.7188 10.3125C66.6354 10.5625 66.6354 10.8229 66.7188 11.0938C66.8021 11.3438 66.9479 11.5625 67.1562 11.75C67.3854 11.9167 67.6667 12 68 12C68.3125 12 68.5729 11.9167 68.7812 11.75C69.0104 11.5625 69.1667 11.3438 69.25 11.0938C69.3542 10.8229 69.3646 10.5625 69.2812 10.3125L71.6562 7.96875C71.9062 8.03125 72.1562 8.02083 72.4062 7.9375C72.6562 7.85417 72.875 7.70833 73.0625 7.5C73.25 7.27083 73.3438 6.98958 73.3438 6.65625C73.3438 6.30208 73.2083 6 72.9375 5.75C72.6875 5.47917 72.375 5.34375 72 5.34375ZM68 6L68.625 4.625L70 4L68.625 3.375L68 2L67.375 3.375L66 4L67.375 4.625L68 6ZM60.3438 7.34375L60.6562 6L62 5.65625L60.6562 5.34375L60.3438 4L60 5.34375L58.6562 5.65625L60 6L60.3438 7.34375Z" fill="#1AACF0"/>
<path d="M6.89844 11.6797V3.625H8.39844V11.6797C8.39844 12.4297 8.24479 13.0625 7.9375 13.5781C7.63021 14.0938 7.20573 14.487 6.66406 14.7578C6.1276 15.0234 5.51042 15.1562 4.8125 15.1562C4.11458 15.1562 3.49479 15.0365 2.95312 14.7969C2.41146 14.5573 1.98698 14.1927 1.67969 13.7031C1.3724 13.2135 1.21875 12.5964 1.21875 11.8516H2.72656C2.72656 12.3307 2.8151 12.724 2.99219 13.0312C3.16927 13.3385 3.41406 13.5651 3.72656 13.7109C4.04427 13.8568 4.40625 13.9297 4.8125 13.9297C5.20833 13.9297 5.5625 13.8464 5.875 13.6797C6.19271 13.5078 6.44271 13.2552 6.625 12.9219C6.80729 12.5833 6.89844 12.1693 6.89844 11.6797ZM10.3516 10.8672V10.6875C10.3516 10.0781 10.4401 9.51302 10.6172 8.99219C10.7943 8.46615 11.0495 8.01042 11.3828 7.625C11.7161 7.23438 12.1198 6.93229 12.5938 6.71875C13.0677 6.5 13.599 6.39062 14.1875 6.39062C14.7812 6.39062 15.3151 6.5 15.7891 6.71875C16.2682 6.93229 16.6745 7.23438 17.0078 7.625C17.3464 8.01042 17.6042 8.46615 17.7812 8.99219C17.9583 9.51302 18.0469 10.0781 18.0469 10.6875V10.8672C18.0469 11.4766 17.9583 12.0417 17.7812 12.5625C17.6042 13.0833 17.3464 13.5391 17.0078 13.9297C16.6745 14.3151 16.2708 14.6172 15.7969 14.8359C15.3281 15.0495 14.7969 15.1562 14.2031 15.1562C13.6094 15.1562 13.0755 15.0495 12.6016 14.8359C12.1276 14.6172 11.7214 14.3151 11.3828 13.9297C11.0495 13.5391 10.7943 13.0833 10.6172 12.5625C10.4401 12.0417 10.3516 11.4766 10.3516 10.8672ZM11.7969 10.6875V10.8672C11.7969 11.2891 11.8464 11.6875 11.9453 12.0625C12.0443 12.4323 12.1927 12.7604 12.3906 13.0469C12.5938 13.3333 12.8464 13.5599 13.1484 13.7266C13.4505 13.888 13.8021 13.9688 14.2031 13.9688C14.599 13.9688 14.9453 13.888 15.2422 13.7266C15.5443 13.5599 15.7943 13.3333 15.9922 13.0469C16.1901 12.7604 16.3385 12.4323 16.4375 12.0625C16.5417 11.6875 16.5938 11.2891 16.5938 10.8672V10.6875C16.5938 10.2708 16.5417 9.8776 16.4375 9.50781C16.3385 9.13281 16.1875 8.80208 15.9844 8.51562C15.7865 8.22396 15.5365 7.99479 15.2344 7.82812C14.9375 7.66146 14.5885 7.57812 14.1875 7.57812C13.7917 7.57812 13.4427 7.66146 13.1406 7.82812C12.8438 7.99479 12.5938 8.22396 12.3906 8.51562C12.1927 8.80208 12.0443 9.13281 11.9453 9.50781C11.8464 9.8776 11.7969 10.2708 11.7969 10.6875ZM24.8438 13.5547V9.20312C24.8438 8.86979 24.776 8.58073 24.6406 8.33594C24.5104 8.08594 24.3125 7.89323 24.0469 7.75781C23.7812 7.6224 23.4531 7.55469 23.0625 7.55469C22.6979 7.55469 22.3776 7.61719 22.1016 7.74219C21.8307 7.86719 21.6172 8.03125 21.4609 8.23438C21.3099 8.4375 21.2344 8.65625 21.2344 8.89062H19.7891C19.7891 8.58854 19.8672 8.28906 20.0234 7.99219C20.1797 7.69531 20.4036 7.42708 20.6953 7.1875C20.9922 6.94271 21.3464 6.75 21.7578 6.60938C22.1745 6.46354 22.638 6.39062 23.1484 6.39062C23.763 6.39062 24.3047 6.49479 24.7734 6.70312C25.2474 6.91146 25.6172 7.22656 25.8828 7.64844C26.1536 8.0651 26.2891 8.58854 26.2891 9.21875V13.1562C26.2891 13.4375 26.3125 13.737 26.3594 14.0547C26.4115 14.3724 26.487 14.6458 26.5859 14.875V15H25.0781C25.0052 14.8333 24.9479 14.612 24.9062 14.3359C24.8646 14.0547 24.8438 13.7943 24.8438 13.5547ZM25.0938 9.875L25.1094 10.8906H23.6484C23.237 10.8906 22.8698 10.9245 22.5469 10.9922C22.224 11.0547 21.9531 11.151 21.7344 11.2812C21.5156 11.4115 21.349 11.5755 21.2344 11.7734C21.1198 11.9661 21.0625 12.1927 21.0625 12.4531C21.0625 12.7188 21.1224 12.9609 21.2422 13.1797C21.362 13.3984 21.5417 13.5729 21.7812 13.7031C22.026 13.8281 22.3255 13.8906 22.6797 13.8906C23.1224 13.8906 23.513 13.7969 23.8516 13.6094C24.1901 13.4219 24.4583 13.1927 24.6562 12.9219C24.8594 12.651 24.9688 12.388 24.9844 12.1328L25.6016 12.8281C25.5651 13.0469 25.4661 13.2891 25.3047 13.5547C25.1432 13.8203 24.9271 14.0755 24.6562 14.3203C24.3906 14.5599 24.0729 14.7604 23.7031 14.9219C23.3385 15.0781 22.9271 15.1562 22.4688 15.1562C21.8958 15.1562 21.3932 15.0443 20.9609 14.8203C20.5339 14.5964 20.2005 14.2969 19.9609 13.9219C19.7266 13.5417 19.6094 13.1172 19.6094 12.6484C19.6094 12.1953 19.6979 11.7969 19.875 11.4531C20.0521 11.1042 20.3073 10.8151 20.6406 10.5859C20.974 10.3516 21.375 10.1745 21.8438 10.0547C22.3125 9.9349 22.8359 9.875 23.4141 9.875H25.0938ZM25.1016 3.15625L26.0781 3.24219C26.0781 3.6224 26.0026 3.95573 25.8516 4.24219C25.7005 4.52865 25.4974 4.75 25.2422 4.90625C24.9922 5.0625 24.7083 5.14062 24.3906 5.14062C24.125 5.14062 23.9062 5.10417 23.7344 5.03125C23.5625 4.95312 23.4089 4.86719 23.2734 4.77344C23.138 4.67448 22.9948 4.58854 22.8438 4.51562C22.6979 4.4375 22.5156 4.39844 22.2969 4.39844C22.0781 4.39844 21.8932 4.48177 21.7422 4.64844C21.5964 4.8151 21.5234 5.02083 21.5234 5.26562L20.5469 5.21875C20.5469 4.83854 20.6198 4.50521 20.7656 4.21875C20.9167 3.92708 21.1198 3.70052 21.375 3.53906C21.6302 3.3724 21.9141 3.28906 22.2266 3.28906C22.4505 3.28906 22.6458 3.32812 22.8125 3.40625C22.9844 3.47917 23.1458 3.5651 23.2969 3.66406C23.4479 3.75781 23.6042 3.84375 23.7656 3.92188C23.9271 3.99479 24.112 4.03125 24.3203 4.03125C24.5391 4.03125 24.724 3.94792 24.875 3.78125C25.026 3.60938 25.1016 3.40104 25.1016 3.15625ZM28.1797 10.8672V10.6875C28.1797 10.0781 28.2682 9.51302 28.4453 8.99219C28.6224 8.46615 28.8776 8.01042 29.2109 7.625C29.5443 7.23438 29.9479 6.93229 30.4219 6.71875C30.8958 6.5 31.4271 6.39062 32.0156 6.39062C32.6094 6.39062 33.1432 6.5 33.6172 6.71875C34.0964 6.93229 34.5026 7.23438 34.8359 7.625C35.1745 8.01042 35.4323 8.46615 35.6094 8.99219C35.7865 9.51302 35.875 10.0781 35.875 10.6875V10.8672C35.875 11.4766 35.7865 12.0417 35.6094 12.5625C35.4323 13.0833 35.1745 13.5391 34.8359 13.9297C34.5026 14.3151 34.099 14.6172 33.625 14.8359C33.1562 15.0495 32.625 15.1562 32.0312 15.1562C31.4375 15.1562 30.9036 15.0495 30.4297 14.8359C29.9557 14.6172 29.5495 14.3151 29.2109 13.9297C28.8776 13.5391 28.6224 13.0833 28.4453 12.5625C28.2682 12.0417 28.1797 11.4766 28.1797 10.8672ZM29.625 10.6875V10.8672C29.625 11.2891 29.6745 11.6875 29.7734 12.0625C29.8724 12.4323 30.0208 12.7604 30.2188 13.0469C30.4219 13.3333 30.6745 13.5599 30.9766 13.7266C31.2786 13.888 31.6302 13.9688 32.0312 13.9688C32.4271 13.9688 32.7734 13.888 33.0703 13.7266C33.3724 13.5599 33.6224 13.3333 33.8203 13.0469C34.0182 12.7604 34.1667 12.4323 34.2656 12.0625C34.3698 11.6875 34.4219 11.2891 34.4219 10.8672V10.6875C34.4219 10.2708 34.3698 9.8776 34.2656 9.50781C34.1667 9.13281 34.0156 8.80208 33.8125 8.51562C33.6146 8.22396 33.3646 7.99479 33.0625 7.82812C32.7656 7.66146 32.4167 7.57812 32.0156 7.57812C31.6198 7.57812 31.2708 7.66146 30.9688 7.82812C30.6719 7.99479 30.4219 8.22396 30.2188 8.51562C30.0208 8.80208 29.8724 9.13281 29.7734 9.50781C29.6745 9.8776 29.625 10.2708 29.625 10.6875ZM45.5469 13.2734L48.8984 3.625H50.5312L46.3203 15H45.1562L45.5469 13.2734ZM42.4141 3.625L45.7344 13.2734L46.1484 15H44.9844L40.7812 3.625H42.4141ZM50.1016 14.2344C50.1016 13.9896 50.1771 13.7839 50.3281 13.6172C50.4844 13.4453 50.7083 13.3594 51 13.3594C51.2917 13.3594 51.513 13.4453 51.6641 13.6172C51.8203 13.7839 51.8984 13.9896 51.8984 14.2344C51.8984 14.474 51.8203 14.6771 51.6641 14.8438C51.513 15.0104 51.2917 15.0938 51 15.0938C50.7083 15.0938 50.4844 15.0104 50.3281 14.8438C50.1771 14.6771 50.1016 14.474 50.1016 14.2344Z" fill="#7C7C7C"/>
</svg>
